<svg xmlns="http://www.w3.org/2000/svg" width="48" height="48"><path style="line-height:normal;text-indent:0;text-align:start;text-decoration-line:none;text-decoration-style:solid;text-decoration-color:#000;text-transform:none;block-progression:tb;isolation:auto;mix-blend-mode:normal" d="M24 0C10.751 0 0 10.751 0 24s10.751 24 24 24 24-10.751 24-24S37.249 0 24 0zm0 1c12.708 0 23 10.292 23 23 0 12.709-10.292 23-23 23S1 36.709 1 24C1 11.292 11.292 1 24 1zM10 15c-1.1 0-2 .9-2 2v14c0 1.1.9 2 2 2h28c1.1 0 2-.9 2-2V17c0-1.1-.9-2-2-2H10zm0 1h28c.563 0 1 .437 1 1v14c0 .563-.437 1-1 1H10c-.563 0-1-.437-1-1V17c0-.563.437-1 1-1zm3 1v.5c0 1.387-1.113 2.5-2.5 2.5H10v8h.5c1.387 0 2.5 1.113 2.5 2.5v.5h22v-.5c0-1.387 1.113-2.5 2.5-2.5h.5v-8h-.5a2.492 2.492 0 0 1-2.5-2.5V17H13zm.898 1h6.5a6.996 6.996 0 0 0 0 12h-6.5A3.426 3.426 0 0 0 11 27.102v-6.204A3.426 3.426 0 0 0 13.898 18zm10.082 0c3.326 0 6.02 2.685 6.02 6 0 3.316-2.694 6-6.02 6A5.971 5.971 0 0 1 18 24c0-3.319 2.654-6 5.98-6zm3.577 0h6.545A3.426 3.426 0 0 0 37 20.898v6.204A3.426 3.426 0 0 0 34.102 30h-6.526C29.622 28.775 31 26.547 31 24a.5.5 0 0 0-.04-.195A7.016 7.016 0 0 0 27.558 18zm-6.03 2v.01h-.023v1h1.027c.934 0 1.408.442 1.578.99h-2.582v1h2.582c-.17.548-.644.99-1.578.99h-1.027v1h.267L24.855 28l.698-.715-2.412-2.355c1.095-.222 1.8-1.035 1.994-1.93H26.5v-1h-1.365c-.078-.36-.244-.7-.479-1H26.5v-1h-4.973zM14 23c-.546 0-1 .454-1 1s.454 1 1 1 1-.454 1-1-.454-1-1-1zm20 0c-.546 0-1 .454-1 1s.454 1 1 1 1-.454 1-1-.454-1-1-1z" color="#000" font-family="sans-serif" font-weight="400" overflow="visible"/></svg>