<svg width="18" height="12" viewBox="0 0 18 12" fill="none" xmlns="http://www.w3.org/2000/svg">
<path d="M2.78571 0C2.0469 0 1.33834 0.293494 0.815917 0.815917C0.293494 1.33834 0 2.0469 0 2.78571V3.85714H17.1429V2.78571C17.1429 2.41989 17.0708 2.05765 16.9308 1.71967C16.7908 1.38169 16.5856 1.07459 16.3269 0.815917C16.0683 0.557239 15.7612 0.352045 15.4232 0.21205C15.0852 0.0720548 14.723 0 14.3571 0H2.78571ZM17.1429 5.14286H0V9.21429C0 9.9531 0.293494 10.6617 0.815917 11.1841C1.33834 11.7065 2.0469 12 2.78571 12H14.3571C14.723 12 15.0852 11.9279 15.4232 11.788C15.7612 11.648 16.0683 11.4428 16.3269 11.1841C16.5856 10.9254 16.7908 10.6183 16.9308 10.2803C17.0708 9.94235 17.1429 9.58011 17.1429 9.21429V5.14286ZM11.7857 8.14286H13.9286C14.0991 8.14286 14.2626 8.21059 14.3831 8.33115C14.5037 8.4517 14.5714 8.61522 14.5714 8.78571C14.5714 8.95621 14.5037 9.11972 14.3831 9.24028C14.2626 9.36084 14.0991 9.42857 13.9286 9.42857H11.7857C11.6152 9.42857 11.4517 9.36084 11.3311 9.24028C11.2106 9.11972 11.1429 8.95621 11.1429 8.78571C11.1429 8.61522 11.2106 8.4517 11.3311 8.33115C11.4517 8.21059 11.6152 8.14286 11.7857 8.14286Z" fill="#219653"/>
</svg>
